<svg id="Calque_2" data-name="Calque 2" xmlns="http://www.w3.org/2000/svg" viewBox="0 0 87.21 101.45">
  <defs>
    <style>
      .cls-1 {
        fill: #fff;
        stroke-width: 0px;
      }
    </style>
  </defs>
  <g id="Calque_2-2" data-name="Calque 2">
    <path class="cls-1" d="M57.29,6.2C53.46,2.37,48.17,0,42.32,0h-2.03s0,21.17,0,21.17h23.2c0-5.84-2.37-11.14-6.2-14.97ZM43.33,98.77c-3.02-2.97-5.08-6.92-6.16-11.81-.86-3.91-4.36-6.68-8.37-6.68-2.15,0-3.62-.45-4.41-1.35-.79-.9-1.18-2.15-1.18-3.73v-27.39s-.07-.04-.11-.06c-1.33-.64-2.61-1.04-3.72-1.3-1.4-.33-2.53-.42-3.17-.45-.33-.01-.52-.01-.57,0l.54-.09c.82-.13,1.61-.29,2.35-.48,1.79-.47,3.34-1.11,4.68-1.86v-17.32c0-1.58.39-2.82,1.18-3.73.79-.9,2.26-1.35,4.41-1.35,2.07,0,3.94-.84,5.3-2.19,1.35-1.36,2.19-3.23,2.19-5.3V0s-13.59,0-13.59,0C7.57,0,0,7.73,0,23.2v55.05c0,15.47,7.57,23.2,22.7,23.2h19.54c1.4,0,2.09-1.7,1.09-2.68ZM21.08,45.43c-.62.16-1.27.29-1.96.4-.15.02-.29.05-.44.07.04,0,.2-.01.47,0,.53.03,1.48.1,2.64.38.45.1.92.23,1.42.4v-1.96c-.66.28-1.37.51-2.13.71ZM66.01,80.28h-25.67c.64,14.12,8.19,21.17,22.65,21.17h9.51s0-14.68,0-14.68c0-3.59-2.9-6.49-6.49-6.49Z"/>
    <path class="cls-1" d="M43.85,44.98c-1.12-.32-2.34-.78-3.56-1.42v4.58c2.23-1.37,5.06-2.33,8.61-2.34-.71-.02-2.67-.12-5.05-.82ZM81.9,85.59c-3.28-3.28-7.82-5.31-12.82-5.31-2.14,0-3.61-.45-4.4-1.35-.79-.9-1.19-2.15-1.19-3.73V23.2c0-.68-.03-1.36-.09-2.03C62.37,9.31,52.42,0,40.29,0v42.44c1.9,1.18,3.84,1.95,5.58,2.45,2.86.84,5.21.96,6.07.98-4.99.01-8.79,1.58-11.65,3.67v28.71c0,.69.02,1.37.05,2.03.64,14.12,8.19,21.17,22.65,21.17h21.18c1.68,0,3.04-1.36,3.04-3.04,0-5-2.03-9.54-5.31-12.82Z"/>
    <path class="cls-1" d="M48.9,45.8c-3.55.01-6.38.97-8.61,2.34-5.51,3.35-7.39,9.16-7.39,9.16-1.45-4.9-4.14-7.69-6.8-9.29-.4-.24-.81-.46-1.21-.65-.58-.28-1.14-.5-1.68-.68-.5-.17-.97-.3-1.42-.4-1.16-.28-2.11-.35-2.64-.38-.27-.01-.43,0-.47,0,.15-.02.29-.05.44-.07.69-.11,1.34-.24,1.96-.4.76-.2,1.47-.43,2.13-.71,1.65-.65,2.99-1.51,4.09-2.45.4-.35.77-.7,1.11-1.07.04-.04.09-.09.13-.14.63-.69,1.15-1.4,1.58-2.09.17-.29.33-.57.48-.85.1-.2.2-.4.3-.6.93-1.97,1.13-3.52,1.14-3.61.48,1.34,1.06,2.53,1.71,3.59.13.2.25.39.38.59.22.33.46.65.69.95.27.35.55.67.83.98.9.98,1.86,1.79,2.85,2.47.59.4,1.19.76,1.79,1.07,1.22.64,2.44,1.1,3.56,1.42,2.38.7,4.34.8,5.05.82Z"/>
  </g>
</svg>