<?xml version="1.0" encoding="UTF-8"?>
<svg id="Calque_2" data-name="Calque 2" xmlns="http://www.w3.org/2000/svg" viewBox="0 0 87.21 101.45">
  <defs>
    <style>
      .cls-1 {
        fill: #fff;
        stroke-width: 0px;
      }
    </style>
  </defs>
  <g id="Calque_2-2" data-name="Calque 2">
    <path class="cls-1" d="M43.33,98.77c-3.02-2.97-5.08-6.92-6.16-11.81-.86-3.91-4.36-6.68-8.37-6.68-2.15,0-3.62-.45-4.41-1.35-.79-.9-1.18-2.15-1.18-3.73v-27.39s-.07-.04-.11-.06c-1.33-.64-2.61-1.04-3.72-1.3-1.4-.33-2.53-.42-3.17-.45-.33-.01-.52-.01-.57,0l.54-.09c.82-.13,1.61-.29,2.35-.48,1.79-.47,3.34-1.11,4.68-1.86v-17.32c0-1.58.39-2.82,1.18-3.73.79-.9,2.26-1.35,4.41-1.35s3.94-.84,5.3-2.19c1.35-1.36,2.19-3.23,2.19-5.3V0h-13.59C7.57,0,0,7.73,0,23.2v55.05c0,15.47,7.57,23.2,22.7,23.2h19.54c1.4,0,2.09-1.7,1.09-2.68Z"/>
    <path class="cls-1" d="M87.21,98.41c0,1.68-1.36,3.04-3.04,3.04h-21.18c-14.46,0-22.01-7.05-22.65-21.17-.03-.66-.05-1.34-.05-2.03v-28.71c2.86-2.09,6.66-3.66,11.65-3.67-.86-.02-3.21-.14-6.07-.98-1.74-.5-3.68-1.27-5.58-2.45V0h2.03c5.85,0,11.14,2.37,14.97,6.2,3.83,3.83,6.2,9.13,6.2,14.97h-.09c.06.67.09,1.35.09,2.03v52c0,1.58.4,2.83,1.19,3.73.79.9,2.26,1.35,4.4,1.35,5,0,9.54,2.03,12.82,5.31,3.28,3.28,5.31,7.82,5.31,12.82Z"/>
    <path class="cls-1" d="M48.9,45.8c-3.55.01-6.38.97-8.61,2.34-5.51,3.35-7.39,9.16-7.39,9.16-1.45-4.9-4.14-7.69-6.8-9.29-.4-.24-.81-.46-1.21-.65-.58-.28-1.14-.5-1.68-.68-.5-.17-.97-.3-1.42-.4-1.16-.28-2.11-.35-2.64-.38-.27-.01-.43,0-.47,0,.15-.02.29-.05.44-.07.69-.11,1.34-.24,1.96-.4.76-.2,1.47-.43,2.13-.71,1.65-.65,2.99-1.51,4.09-2.45.4-.35.77-.7,1.11-1.07.04-.04.09-.09.13-.14.63-.69,1.15-1.4,1.58-2.09.17-.29.33-.57.48-.85.1-.2.2-.4.3-.6.93-1.97,1.13-3.52,1.14-3.61.48,1.34,1.06,2.53,1.71,3.59.13.2.25.39.38.59.22.33.46.65.69.95.27.35.55.67.83.98.9.98,1.86,1.79,2.85,2.47.59.4,1.19.76,1.79,1.07,1.22.64,2.44,1.1,3.56,1.42,2.38.7,4.34.8,5.05.82Z"/>
  </g>
</svg>