<?xml version="1.0" encoding="UTF-8"?>
<svg id="Calque_2" data-name="Calque 2" xmlns="http://www.w3.org/2000/svg" viewBox="0 0 151.21 151.21">
  <defs>
    <style>
      .cls-1 {
        fill: #132035;
      }

      .cls-1, .cls-2, .cls-3 {
        stroke-width: 0px;
      }

      .cls-2 {
        fill: #c0a2cd;
      }

      .cls-3 {
        fill: #352050;
      }
    </style>
  </defs>
  <g id="Calque_1-2" data-name="Calque 1">
    <path class="cls-2" d="M121.21,0H0v121.21c0,16.57,13.43,30,30,30h121.21V30c0-16.57-13.43-30-30-30ZM140.24,140.24H36.62c-14.16,0-25.65-11.48-25.65-25.65V10.98h103.62c14.16,0,25.65,11.48,25.65,25.64v103.62Z"/>
    <path class="cls-1" d="M140.24,36.62v103.62H36.62c-14.16,0-25.65-11.48-25.65-25.65V10.98h103.62c14.16,0,25.65,11.48,25.65,25.64Z"/>
    <path class="cls-3" d="M142.34,35.45v106.99H35.35c-14.62,0-26.48-11.85-26.48-26.48V8.98h106.99c14.62,0,26.48,11.85,26.48,26.47Z"/>
  </g>
  <g id="Calque_2-2" data-name="Calque 2">
    <polygon class="cls-2" points="38.18 98.76 54.69 50.15 54.69 47.4 66.84 47.4 84.73 98.76 74.52 98.76 69.59 85.35 52.17 85.35 47.81 98.76 38.18 98.76"/>
    <polygon class="cls-3" points="60.65 54.85 54.34 76.75 67.53 76.75 60.65 54.85"/>
  </g>
  <g id="Calque_3" data-name="Calque 3">
    <path class="cls-2" d="M95.85,81.8h22.59s2.75-13.64-6.42-19.38c0,0-17.89-8.37-24.88,10.66,0,0-4.7,18.69,9.75,25.68,0,0,13.07,2.18,19.03-1.49v-6.88s-11.69,4.47-16.74-.57-3.32-8.03-3.32-8.03Z"/>
    <path class="cls-3" d="M95.73,75.6h14.22s.8-8.48-6.54-8.94-7.68,8.37-7.68,8.37"/>
  </g>
</svg>