<?xml version="1.0" encoding="UTF-8"?>
<svg id="Calque_2" data-name="Calque 2" xmlns="http://www.w3.org/2000/svg" viewBox="0 0 151.21 151.21">
  <defs>
    <style>
      .cls-1, .cls-2, .cls-3 {
        stroke-width: 0px;
      }

      .cls-2 {
        fill: #132035;
      }

      .cls-3 {
        fill: #fff;
      }
    </style>
  </defs>
  <g id="Calque_1-2" data-name="Calque 1">
    <path class="cls-1" d="M121.21,0H0v121.21c0,16.57,13.43,30,30,30h121.21V30c0-16.57-13.43-30-30-30ZM140.24,140.24H36.62c-14.16,0-25.65-11.48-25.65-25.65V10.98h103.62c14.16,0,25.65,11.48,25.65,25.64v103.62Z"/>
    <path class="cls-2" d="M140.24,36.62v103.62H36.62c-14.16,0-25.65-11.48-25.65-25.65V10.98h103.62c14.16,0,25.65,11.48,25.65,25.64Z"/>
    <path class="cls-3" d="M142.34,35.45v106.99H35.35c-14.62,0-26.48-11.85-26.48-26.48V8.98h106.99c14.62,0,26.48,11.85,26.48,26.47Z"/>
  </g>
  <g id="Calque_2-2" data-name="Calque 2">
    <path class="cls-1" d="M57.71,75.6c-.72-.41-1.23-.73-1.77-1-5.81-3.02-11.62-6.05-17.46-9.01-.94-.48-1.29-1.04-1.27-2.1.07-3.65,0-7.3.03-10.95.03-4.43,2.43-7.16,6.79-7.8.73-.11,1.47-.17,2.21-.18,15.34,0,30.67-.02,46.01.02,1.4,0,2.87.19,4.19.65,2.75.94,4.41,2.93,4.83,5.87.06.39.11.79.18,1.18.02.1.11.19.26.41,4.71-2.46,9.43-4.93,14.34-7.5.07.59.16,1.01.16,1.42.01,3.08-.06,6.16.04,9.24.04,1.28-.44,1.9-1.54,2.47-10.3,5.38-20.57,10.81-30.85,16.23-.55.29-1.09.59-1.9,1.03.69.4,1.19.71,1.7.98,10.35,5.4,20.7,10.81,31.07,16.17,1.12.58,1.54,1.22,1.51,2.49-.09,3.51-.03,7.03-.03,10.9-5.03-2.66-9.77-5.17-14.55-7.71-.13.34-.22.48-.24.64-.94,5.33-3.53,7.59-8.94,7.6-15.45.03-30.9.03-46.35,0-6.06-.01-8.89-2.91-8.89-8.93,0-3.31.04-6.62-.03-9.92-.02-1.07.36-1.61,1.29-2.09,5.88-3.02,11.72-6.09,17.58-9.16.48-.25.94-.55,1.62-.94ZM44.9,94.89h49.69c-.37-.28-.48-.41-.62-.48-7.72-4.05-15.43-8.11-23.18-12.09-.56-.29-1.55-.2-2.14.1-7.5,3.85-14.96,7.76-22.44,11.67-.37.2-.72.44-1.32.81ZM94.58,56.26h-49.63c.36.29.5.44.67.53,7.73,4.01,15.45,8.04,23.22,11.98.6.3,1.66.18,2.31-.15,7.29-3.75,14.54-7.58,21.8-11.39.42-.22.82-.48,1.63-.97Z"/>
  </g>
</svg>