<?xml version="1.0" encoding="UTF-8"?>
<svg id="Calque_2" data-name="Calque 2" xmlns="http://www.w3.org/2000/svg" viewBox="0 0 151.21 151.21">
  <defs>
    <style>
      .cls-1 {
        fill: #132035;
      }

      .cls-1, .cls-2, .cls-3 {
        stroke-width: 0px;
      }

      .cls-2 {
        fill: #9294c9;
      }

      .cls-3 {
        fill: #21244d;
      }
    </style>
  </defs>
  <g id="Calque_2-2" data-name="Calque 2">
    <path class="cls-2" d="M121.21,0H0v121.21c0,16.57,13.43,30,30,30h121.21V30c0-16.57-13.43-30-30-30ZM140.24,140.24H36.62c-14.16,0-25.65-11.48-25.65-25.65V10.98h103.62c14.16,0,25.65,11.48,25.65,25.64v103.62Z"/>
    <path class="cls-1" d="M140.24,36.62v103.62H36.62c-14.16,0-25.65-11.48-25.65-25.65V10.98h103.62c14.16,0,25.65,11.48,25.65,25.64Z"/>
    <path class="cls-3" d="M142.34,35.45v106.99H35.35c-14.62,0-26.48-11.85-26.48-26.48V8.98h106.99c14.62,0,26.48,11.85,26.48,26.47Z"/>
    <g>
      <path class="cls-2" d="M33.88,109.39h12.79v-20.05s30.08,4.15,32.15-20.74-28.7-23.16-28.7-23.16l-16.06.45-.19,63.51Z"/>
      <path class="cls-3" d="M47.02,77.4v-19.52s19.53-5.79,18.32,12.1c0,0,.69,10.35-18.32,7.42Z"/>
      <path class="cls-2" d="M87.47,61.34v48.06h13.83v-31.59s4.62-5.06,16.03-4.54v-13.35s-9.16-1.3-16.42,7c0,0,.56-6.44-2.12-6.09h-11.32v.52Z"/>
    </g>
  </g>
</svg>