<?xml version="1.0" encoding="UTF-8"?>
<svg id="Calque_2" data-name="Calque 2" xmlns="http://www.w3.org/2000/svg" viewBox="0 0 151.21 151.21">
  <defs>
    <style>
      .cls-1 {
        fill: #431238;
      }

      .cls-1, .cls-2, .cls-3 {
        stroke-width: 0px;
      }

      .cls-2 {
        fill: #132035;
      }

      .cls-3 {
        fill: #bf74ae;
      }
    </style>
  </defs>
  <g id="Calque_1-2" data-name="Calque 1">
    <path class="cls-3" d="M121.21,0H0v121.21c0,16.57,13.43,30,30,30h121.21V30c0-16.57-13.43-30-30-30ZM140.24,140.24H36.62c-14.16,0-25.65-11.48-25.65-25.65V10.98h103.62c14.16,0,25.65,11.48,25.65,25.64v103.62Z"/>
    <path class="cls-2" d="M140.24,36.62v103.62H36.62c-14.16,0-25.65-11.48-25.65-25.65V10.98h103.62c14.16,0,25.65,11.48,25.65,25.64Z"/>
    <path class="cls-1" d="M142.34,35.45v106.99H35.35c-14.62,0-26.48-11.85-26.48-26.48V8.98h106.99c14.62,0,26.48,11.85,26.48,26.47Z"/>
  </g>
  <g id="Calque_2-2" data-name="Calque 2">
    <path class="cls-3" d="M112.78,41.62v18.73s-25.28-3.72-25.87,23.49,34.35,17.1,34.35,17.1l3.72-1.78-1.34-4.16v-53.38h-10.85Z"/>
    <path class="cls-1" d="M112.63,68.82v25.72s-13.38,6.24-16.06-12.86c0,0,.89-19.4,16.06-12.86Z"/>
  </g>
  <g id="Calque_3" data-name="Calque 3">
    <polygon class="cls-3" points="29.8 44.2 46.16 73.34 28.32 102.78 40.36 102.78 52.7 79.88 65.34 102.78 77.68 102.78 59.99 72.15 76.79 44.2 65.19 44.2 53.89 66.05 42.29 44.2 29.8 44.2"/>
  </g>
</svg>