<?xml version="1.0" encoding="UTF-8"?>
<svg id="Calque_2" data-name="Calque 2" xmlns="http://www.w3.org/2000/svg" xmlns:xlink="http://www.w3.org/1999/xlink" viewBox="0 0 151.21 151.21">
  <defs>
    <style>
      .cls-1 {
        fill: #33333a;
      }

      .cls-1, .cls-2, .cls-3, .cls-4, .cls-5, .cls-6, .cls-7, .cls-8 {
        stroke-width: 0px;
      }

      .cls-2 {
        fill: #ee7263;
      }

      .cls-3 {
        fill: #132035;
      }

      .cls-4 {
        fill: #47b278;
      }

      .cls-5 {
        fill: #8361a7;
      }

      .cls-6 {
        fill: #37b7ea;
      }

      .cls-7 {
        fill: #e94f27;
      }

      .cls-8 {
        fill: url(#Dégradé_sans_nom_32);
      }
    </style>
    <linearGradient id="Dégradé_sans_nom_32" data-name="Dégradé sans nom 32" x1="0" y1="75.6" x2="151.21" y2="75.6" gradientUnits="userSpaceOnUse">
      <stop offset="0" stop-color="#e94f27"/>
      <stop offset=".39" stop-color="#8361a7"/>
      <stop offset=".71" stop-color="#37b7ea"/>
      <stop offset=".95" stop-color="#47b278"/>
    </linearGradient>
  </defs>
  <g id="Calque_2-2" data-name="Calque 2">
    <path class="cls-8" d="M121.21,0H0v121.21c0,16.57,13.43,30,30,30h121.21V30c0-16.57-13.43-30-30-30ZM140.24,140.24H36.62c-14.16,0-25.65-11.48-25.65-25.65V10.98h103.62c14.16,0,25.65,11.48,25.65,25.64v103.62Z"/>
    <path class="cls-3" d="M140.24,36.62v103.62H36.62c-14.16,0-25.65-11.48-25.65-25.65V10.98h103.62c14.16,0,25.65,11.48,25.65,25.64Z"/>
    <path class="cls-1" d="M142.34,35.45v106.99H35.35c-14.62,0-26.48-11.85-26.48-26.48V8.98h106.99c14.62,0,26.48,11.85,26.48,26.47Z"/>
  </g>
  <g id="Calque_3" data-name="Calque 3">
    <g>
      <path class="cls-7" d="M73.47,36.96v25.85h-13.37c-7.14,0-12.92-5.79-12.92-12.93,0-3.56,1.45-6.8,3.78-9.13s5.57-3.79,9.14-3.79h13.37Z"/>
      <path class="cls-2" d="M73.46,36.96v25.85s13.37,0,13.37,0c7.14,0,12.92-5.79,12.92-12.93,0-3.56-1.45-6.8-3.78-9.13s-5.57-3.79-9.14-3.79h-13.37Z"/>
      <path class="cls-5" d="M73.47,62.83v25.85h-13.37c-7.14,0-12.92-5.79-12.92-12.93,0-3.56,1.45-6.8,3.78-9.13s5.57-3.79,9.14-3.79h13.37Z"/>
      <rect class="cls-6" x="73.46" y="62.82" width="25.87" height="25.87" rx="12.94" ry="12.94"/>
      <path class="cls-4" d="M60.32,88.71h13.15v12.88c0,7.11-5.77,12.88-12.88,12.88h-.27c-7.11,0-12.88-5.77-12.88-12.88h0c0-7.11,5.77-12.88,12.88-12.88Z"/>
    </g>
  </g>
</svg>