<?xml version="1.0" encoding="UTF-8"?>
<svg id="Calque_2" data-name="Calque 2" xmlns="http://www.w3.org/2000/svg" viewBox="0 0 151.21 151.21">
  <defs>
    <style>
      .cls-1 {
        fill: #36261a;
      }

      .cls-1, .cls-2, .cls-3 {
        stroke-width: 0px;
      }

      .cls-2 {
        fill: #132035;
      }

      .cls-3 {
        fill: #f07e24;
      }
    </style>
  </defs>
  <g id="Calque_1-2" data-name="Calque 1">
    <path class="cls-3" d="M121.21,0H0v121.21c0,16.57,13.43,30,30,30h121.21V30c0-16.57-13.43-30-30-30ZM140.24,140.24H36.62c-14.16,0-25.65-11.48-25.65-25.65V10.98h103.62c14.16,0,25.65,11.48,25.65,25.64v103.62Z"/>
    <path class="cls-2" d="M140.24,36.62v103.62H36.62c-14.16,0-25.65-11.48-25.65-25.65V10.98h103.62c14.16,0,25.65,11.48,25.65,25.64Z"/>
    <path class="cls-1" d="M142.34,35.45v106.99H35.35c-14.62,0-26.48-11.85-26.48-26.48V8.98h106.99c14.62,0,26.48,11.85,26.48,26.47Z"/>
    <polygon class="cls-3" points="35.35 111.24 47.79 111.24 53.07 93.89 75.35 93.89 81.17 111.24 93.8 111.24 71.18 47.32 56.09 47.32 56.28 49.01 35.35 111.24"/>
    <polygon class="cls-1" points="55.9 84.46 72.12 84.46 64.01 57.69 55.9 84.46"/>
  </g>
  <g id="Calque_2-2" data-name="Calque 2">
    <rect class="cls-3" x="102.48" y="65.04" width="11.69" height="46.2"/>
    <circle class="cls-3" cx="108.32" cy="50.33" r="6.88"/>
  </g>
</svg>