<?xml version="1.0" encoding="UTF-8"?>
<svg id="Calque_2" data-name="Calque 2" xmlns="http://www.w3.org/2000/svg" viewBox="0 0 151.21 151.21">
  <defs>
    <style>
      .cls-1 {
        fill: #132035;
      }

      .cls-1, .cls-2 {
        stroke-width: 0px;
      }

      .cls-2 {
        fill: #519fd7;
      }
    </style>
  </defs>
  <g id="Calque_1-2" data-name="Calque 1">
    <path class="cls-2" d="M121.21,0H0v121.21c0,16.57,13.43,30,30,30h121.21V30c0-16.57-13.43-30-30-30ZM140.24,140.24H36.62c-14.16,0-25.65-11.48-25.65-25.65V10.98h103.62c14.16,0,25.65,11.48,25.65,25.64v103.62Z"/>
    <path class="cls-1" d="M140.24,36.62v103.62H36.62c-14.16,0-25.65-11.48-25.65-25.65V10.98h103.62c14.16,0,25.65,11.48,25.65,25.64Z"/>
    <path class="cls-1" d="M142.34,35.45v106.99H35.35c-14.62,0-26.48-11.85-26.48-26.48V8.98h106.99c14.62,0,26.48,11.85,26.48,26.47Z"/>
  </g>
  <g id="Calque_2-2" data-name="Calque 2">
    <g>
      <polygon class="cls-2" points="35.13 42.36 35.13 108.86 76.41 108.86 78.93 96.02 48.89 96.02 48.89 42.36 35.13 42.36"/>
      <path class="cls-2" d="M85.81,58.41v50.45h14.45v-32.33s-.46-4.82,15.82-5.5v-13.99s-8.71,0-16.74,8.03c0,0,2.29-8.48-6.65-7.11l-6.88.46Z"/>
    </g>
  </g>
</svg>