<?xml version="1.0" encoding="UTF-8"?>
<svg id="Calque_2" data-name="Calque 2" xmlns="http://www.w3.org/2000/svg" viewBox="0 0 151.21 151.21">
  <defs>
    <style>
      .cls-1 {
        fill: #002732;
      }

      .cls-1, .cls-2, .cls-3 {
        stroke-width: 0px;
      }

      .cls-2 {
        fill: #4dc2ec;
      }

      .cls-3 {
        fill: #132035;
      }
    </style>
  </defs>
  <g id="Calque_1-2" data-name="Calque 1">
    <path class="cls-2" d="M121.21,0H0v121.21c0,16.57,13.43,30,30,30h121.21V30c0-16.57-13.43-30-30-30ZM140.24,140.24H36.62c-14.16,0-25.65-11.48-25.65-25.65V10.98h103.62c14.16,0,25.65,11.48,25.65,25.64v103.62Z"/>
    <path class="cls-3" d="M140.24,36.62v103.62H36.62c-14.16,0-25.65-11.48-25.65-25.65V10.98h103.62c14.16,0,25.65,11.48,25.65,25.64Z"/>
    <path class="cls-1" d="M142.34,35.45v106.99H35.35c-14.62,0-26.48-11.85-26.48-26.48V8.98h106.99c14.62,0,26.48,11.85,26.48,26.47Z"/>
  </g>
  <g id="Calque_2-2" data-name="Calque 2">
    <path class="cls-2" d="M48.5,81.94c0,.86,0,1.5,0,2.15,0,5.32-.03,10.64.02,15.96.01,1.22-.28,1.78-1.65,1.73-2.63-.1-5.26-.07-7.9-.01-1.16.03-1.51-.4-1.51-1.53.02-18.1.02-36.19,0-54.29,0-1.08.25-1.59,1.46-1.58,6.9.06,13.81-.12,20.71.13,8.74.31,15.88,5.79,17.55,13.54,2.13,9.85-1.2,18.64-12.49,22.21-3.14.99-6.53,1.28-9.83,1.66-2,.23-4.04.04-6.37.04ZM48.5,73.69c2.94,0,5.64.23,8.28-.05,6.28-.66,9.47-3.69,10.16-9.26.72-5.79-2.19-10.35-7.85-11.47-3.13-.62-6.43-.44-9.65-.5-.31,0-.89.85-.9,1.32-.08,3.01-.04,6.03-.04,9.05,0,3.56,0,7.12,0,10.91Z"/>
    <path class="cls-2" d="M84.26,90.4c2.16,1.11,3.9,2.15,5.75,2.91,2.82,1.17,5.81,1.56,8.86,1.15,2.29-.31,3.81-1.45,4.08-3.01.36-2.13-.6-3.65-2.42-4.59-2.04-1.05-4.17-1.92-6.23-2.91-1.28-.61-2.56-1.25-3.78-1.97-4.79-2.82-6.81-7.09-5.92-12.49.83-5.09,4.12-8.24,9.02-9.6,5.26-1.45,10.51-1.1,15.72.42,1.33.39,1.97,1.07,1.89,2.58-.13,2.24-.03,4.49-.03,7.04-.67-.31-1.15-.5-1.58-.74-3.18-1.8-6.6-2.65-10.24-2.41-.96.06-1.96.32-2.82.73-2.42,1.17-2.76,4.19-.59,5.77,1.35.99,2.94,1.67,4.45,2.42,2.44,1.22,4.99,2.25,7.36,3.6,4.24,2.42,6.28,6.17,5.97,11.06-.31,4.94-2.86,8.54-7.37,10.41-7.05,2.94-14.11,2.44-21.02-.69-.44-.2-1.02-.72-1.03-1.11-.09-2.77-.05-5.54-.05-8.58Z"/>
  </g>
</svg>