<svg width="2207" height="1565" viewBox="0 0 2207 1565" fill="none"
  xmlns="http://www.w3.org/2000/svg">
  <path d="M1517.72 942.705C1498.73 999.053 1434.75 1034.45 1346.38 1045.97C1258.04 1057.48 1145.5 1045.1 1029.7 1006.07C913.903 967.048 816.825 908.781 753.475 846.146C690.1 783.486 660.598 716.586 679.589 660.237C698.58 603.888 762.557 568.492 850.932 556.975C939.271 545.462 1051.81 557.842 1167.61 596.867C1283.41 635.893 1380.49 694.16 1443.84 756.795C1507.21 819.456 1536.71 886.356 1517.72 942.705Z" stroke="white" stroke-opacity="0.1"/>
  <path d="M1750.18 1014.32C1720.8 1101.5 1621.85 1156.19 1485.33 1173.98C1348.85 1191.77 1174.99 1172.64 996.115 1112.36C817.243 1052.08 667.273 962.067 569.398 865.296C471.497 768.5 425.836 665.07 455.218 577.889C484.6 490.709 583.55 436.016 720.07 418.224C856.553 400.437 1030.41 419.564 1209.28 479.848C1388.16 540.131 1538.13 630.141 1636 726.911C1733.9 823.708 1779.56 927.137 1750.18 1014.32Z" stroke="white" stroke-opacity="0.1"/>
  <path d="M2050.36 1101.51C2007.36 1229.11 1862.56 1309.1 1662.93 1335.11C1463.34 1361.12 1209.1 1333.15 947.542 1245C685.986 1156.85 466.68 1025.23 323.546 883.712C180.385 742.167 113.543 590.852 156.546 463.254C199.549 335.656 344.346 255.667 543.978 229.65C743.573 203.638 997.811 231.611 1259.37 319.761C1520.92 407.911 1740.23 539.531 1883.36 681.05C2026.52 822.594 2093.37 973.91 2050.36 1101.51Z" stroke="white" stroke-opacity="0.1"/>
</svg>
